{"title":"Eden 2014 1080p BluRay","uid":12522186,"size":4668526615,"categoryP":"video","categoryS":"hd___movies","magnet":"?xt=urn:btih:c3dd3566241cb099cee38785ae69ae0a6deaf179&amp;dn=Eden+2014+1080p+BluRay&amp;tr=udp%3A%2F%2Ftracker.leechers-paradise.org%3A6969&amp;tr=udp%3A%2F%2Fzer0day.ch%3A1337&amp;tr=udp%3A%2F%2Fopen.demonii.com%3A1337&amp;tr=udp%3A%2F%2Ftracker.coppersurfer.tk%3A6969&amp;tr=udp%3A%2F%2Fexodus.desync.com%3A6969","seeders":1,"leechers":0,"uploader":"Joker__TPB","files":4,"time":1443896212,"description":"===================================================================================\r\nAfter their plane crashes off the coast of a deserted Pacific island| the surviving members of an American soccer team find themselves in the most dire of\r\ncircumstances with limited resources| dwindling food supply and no rescue coming any time soon. Team spirit evaporates as disagreements cause the group to separate\r\ninto factions - a violent one lead by an unbalanced ruler (Peck)| and a compassionate one led by a selfless player (Parker).\r\n===================================================================================\r\n\r\nVideo\r\nID                                       : 1\r\nFormat                                   : AVC\r\nFormat/Info                              : Advanced Video Codec\r\nFormat profile                           :   \r\nFormat settings, CABAC                   : Yes\r\nFormat settings, ReFrames                : 5 frames\r\nCodec ID                                 : V_MPEG4/ISO/AVC\r\nDuration                                 : 1h 36mn\r\nBit rate                                 : 4 784 Kbps\r\nWidth                                    : 1 920 pixels\r\nHeight                                   : 808 pixels\r\nDisplay aspect ratio                     : 2.40:1\r\nFrame rate mode                          : Constant\r\nFrame rate                               : 23.976 fps\r\nColor space                              : YUV\r\nChroma subsampling                       : 4:2:0\r\nBit depth                                : 8 bits\r\nScan type                                : Progressive\r\nBits/(Pixel*Frame)                       : 0.129\r\nStream size                              : 3.24 GiB (75%)\r\nTitle                                    : Eden.2014.1080p.BluRay.x264.DTS-RARBG\r\nWriting library                          : x264 core 148 r2597 e86f3a1\r\nEncoding settings                        : cabac=1 / ref=5 / deblock=1:-1:-1 / analyse=0x3:0x133 / me=umh / subme=7 / psy=1 / psy_rd=1.00:0.15 / mixed_ref=1 / me_range=16 / chroma_me=1 / trellis=1 / 8x8dct=1 / cqm=0 / deadzone=21,11 / fast_pskip=0 / chroma_qp_offset=-3 / threads=18 / lookahead_threads=3 / sliced_threads=0 / nr=0 / decimate=1 / interlaced=0 / bluray_compat=0 / constrained_intra=0 / bframes=3 / b_pyramid=2 / b_adapt=1 / b_bias=0 / direct=1 / weightb=1 / open_gop=0 / weightp=2 / keyint=250 / keyint_min=23 / scenecut=40 / intra_refresh=0 / rc_lookahead=40 / rc=crf / mbtree=1 / crf=20.0 / qcomp=0.60 / qpmin=0 / qpmax=69 / qpstep=4 / ip_ratio=1.40 / aq=1:1.00\r\nLanguage                                 : English\r\nDefault                                  : Yes\r\nForced                                   : No\r\n\r\nAudio\r\nID                                       : 2\r\nFormat                                   : DTS\r\nFormat/Info                              : Digital Theater Systems\r\nMode                                     : 16\r\nFormat settings, Endianness              : Big\r\nCodec ID                                 : A_DTS\r\nDuration                                 : 1h 36mn\r\nBit rate mode                            : Constant\r\nBit rate                                 : 1 509 Kbps\r\nChannel(s)                               : 6 channels\r\nChannel positions                        : Front: L C R, Side: L R, LFE\r\nSampling rate                            : 48.0 KHz\r\nBit depth                                : 24 bits\r\nCompression mode                         : Lossy\r\nStream size                              : 1.02 GiB (24%)\r\nTitle                                    : Eden.2014.1080p.BluRay.x264.DTS-RARBG\r\nLanguage                                 : English\r\nDefault                                  : Yes\r\nForced                                   : No\r\n\r\nMenu\r\n00:00:00.000                             : en:00:00:00.000\r\n00:10:33.550                             : en:00:10:33.550\r\n00:22:11.705                             : en:00:22:11.705\r\n00:32:25.902                             : en:00:32:25.902\r\n00:42:22.039                             : en:00:42:22.039\r\n00:53:42.636                             : en:00:53:42.636\r\n01:03:30.348                             : en:01:03:30.348\r\n01:14:40.267                             : en:01:14:40.267\r\n01:23:44.811                             : en:01:23:44.811\r\n01:33:13.046                             : en:01:33:13.046\r\n\r\n\r\n===================================================================================","torrent":{"xt":"urn:btih:c3dd3566241cb099cee38785ae69ae0a6deaf179","amp;dn":"Eden+2014+1080p+BluRay","amp;tr":["udp%3A%2F%2Ftracker.leechers-paradise.org%3A6969","udp%3A%2F%2Fzer0day.ch%3A1337","udp%3A%2F%2Fopen.demonii.com%3A1337","udp%3A%2F%2Ftracker.coppersurfer.tk%3A6969","udp%3A%2F%2Fexodus.desync.com%3A6969"],"infoHash":"c3dd3566241cb099cee38785ae69ae0a6deaf179","infoHashBuffer":{"type":"Buffer","data":[195,221,53,102,36,28,176,153,206,227,135,133,174,105,174,10,109,234,241,121]},"announce":[],"urlList":[]}}